<?xml version="1.0" encoding="UTF-8" standalone="no"?>
<svg width="15px" height="15px" viewBox="0 0 15 15" version="1.1" xmlns="http://www.w3.org/2000/svg" xmlns:xlink="http://www.w3.org/1999/xlink">
    <!-- Generator: Sketch 39.1 (31720) - http://www.bohemiancoding.com/sketch -->
    <title>操作手册</title>
    <desc>Created with Sketch.</desc>
    <defs></defs>
    <g id="Page-1" stroke="none" stroke-width="1" fill="none" fill-rule="evenodd">
        <g id="内容_文件刷新_展开搜索" transform="translate(-1092.000000, -21.000000)" fill="#FFFFFF">
            <g id="操作手册" transform="translate(1092.000000, 21.000000)">
                <path d="M13.9277426,14.9928457 L1.7093863,14.9928457 C1.3196637,14.9928457 1.00437352,14.6786136 1.00437352,14.2903769 L1.00437352,2.1144752 C1.00437352,1.72690725 1.3196637,1.41201985 1.7093863,1.41201985 L2.88411355,1.41201985 L2.88411355,2.1144752 C2.88411355,2.89014548 3.51559911,3.51936573 4.29346434,3.51936573 C5.07258696,3.51936573 5.70317721,2.89014885 5.70317721,2.1144752 L5.70317719,1.4120232 L6.40845329,1.4120232 L6.40845329,2.11447855 C6.40845329,2.89014883 7.03959323,3.51936908 7.81841303,3.51936908 C8.59693658,3.51936908 9.22778027,2.89015219 9.22778027,2.11447855 L9.22778025,1.4120232 L9.93332627,1.4120232 L9.93332627,2.11447855 C9.93332627,2.89014883 10.5639066,3.51936908 11.3424137,3.51936908 C12.1205917,3.51936908 12.752143,2.89015219 12.752143,2.11447855 L12.7521431,1.4120232 L13.9274792,1.4120232 C14.3162802,1.4120232 14.6319226,1.7269106 14.6319226,2.11447855 L14.6319226,14.2903802 C14.6321694,14.6786204 14.3168891,14.992849 13.9278413,14.992849 L13.9277426,14.992849 L13.9277426,14.9928457 Z M12.0471072,5.39235257 L3.58917569,5.39235257 C3.19974934,5.39235257 2.88389959,5.70725679 2.88389959,6.0947743 C2.88389959,6.48296403 3.19944653,6.79724645 3.58917569,6.79724645 L12.0471072,6.79724645 C12.4371096,6.79724645 12.7526532,6.48296401 12.7526532,6.0947743 C12.7526532,5.70725342 12.4371063,5.39235257 12.0471072,5.39235257 L12.0471072,5.39235257 Z M12.0471072,8.43653973 L3.58917569,8.43653973 C3.19974934,8.43653973 2.88389959,8.75077175 2.88389959,9.1389245 C2.88389959,9.52654286 3.19944653,9.84139665 3.58917569,9.84139665 L12.0471072,9.84139665 C12.4371096,9.84139665 12.7526532,9.52654285 12.7526532,9.1389245 C12.7526532,8.75077175 12.4371063,8.43653973 12.0471072,8.43653973 L12.0471072,8.43653973 Z M12.1651728,11.4806798 L3.47170922,11.4806798 C3.14683068,11.4806798 2.88415632,11.7425146 2.88415632,12.0659557 C2.88415632,12.3893967 3.14717628,12.6512315 3.47170922,12.6512315 L12.1651761,12.6512315 C12.4897419,12.6512315 12.7526532,12.3893967 12.7526532,12.0659557 C12.7526532,11.7425146 12.4893765,11.4806798 12.1651728,11.4806798 L12.1651728,11.4806798 Z M11.3427429,2.81689693 C10.9539419,2.81689693 10.6377894,2.50200953 10.6377894,2.11447855 L10.6377894,0.709534254 C10.6377894,0.322016721 10.9535996,0.00711586883 11.3427429,0.00711586883 C11.7321692,0.00711586883 12.0471072,0.322020084 12.0471072,0.709534254 L12.0471072,2.1144752 C12.0471072,2.50200953 11.7321692,2.81689693 11.3427429,2.81689693 L11.3427429,2.81689693 Z M7.81872572,2.81689693 C7.42959562,2.81689693 7.11344303,2.50200953 7.11344303,2.11447855 L7.11344303,0.709534254 C7.11344303,0.322016721 7.42935204,0.00711586883 7.81872572,0.00711586883 C8.20751021,0.00711586883 8.52341922,0.322020084 8.52341922,0.709534254 L8.52341922,2.1144752 C8.52308676,2.50200953 8.20718106,2.81689693 7.81872572,2.81689693 L7.81872572,2.81689693 Z M4.2935137,2.81689693 C3.90472263,2.81689693 3.58912632,2.50200953 3.58912632,2.11447855 L3.58912632,0.709534254 C3.58912632,0.322016721 3.90472261,0.00711586883 4.2935137,0.00711586883 C4.68324289,0.00711586883 4.99909264,0.322020084 4.99909264,0.709534254 L4.99909264,2.1144752 C4.99909264,2.50200953 4.68324289,2.81689693 4.2935137,2.81689693 L4.2935137,2.81689693 Z" id="Shape"></path>
            </g>
        </g>
    </g>
</svg>